<?xml version="1.0" encoding="UTF-8"?><svg id="a" xmlns="http://www.w3.org/2000/svg" xmlns:xlink="http://www.w3.org/1999/xlink" viewBox="0 0 800 600.7"><image transform="translate(166.14) scale(0)" xlink:href="../wop9865_Black_silhouette_of_A_Egyptian_Mau_Cat_Simple_and_clean_af367d93-92e6-4010-899e-12c31e987646.png"/><path d="M82.06,491.63c9.21-.66,18.41-1.32,27.62-1.97-3.77-2.96-7.81-5.56-11.15-8.87-11.52-11.39-12.9-29.57-3.61-42.84,9.7-13.87,23.69-20.27,39.84-22.65,6.72-.99,13.56-1.14,20.89-1.72-.35-1.26-.62-2.54-1.05-3.77-18.9-53.89-7.23-101.74,29.92-143.63,30.62-34.51,69.82-54.77,114.85-63.66,28.12-5.55,56.33-5.41,84.39,1,1.48,.34,3,.51,5.14,.87,0-3.36,.17-6.26-.03-9.14-1.88-27.31-.72-54.47,3.83-81.46,1-5.91,2.01-6.52,7.78-5.66,26.44,3.92,49.09,15.88,68.78,33.43,7.86,7.01,14.41,15.48,21.77,23.08,1.25,1.29,3.75,2.44,5.38,2.13,31.33-6.05,62.03-3.34,92.23,6.33,3.55,1.14,5.81,.32,8.21-2.27,17.65-19.04,37.82-34.78,61.3-46.05,5.46-2.62,11.15-4.82,16.86-6.87,4.85-1.75,6.3-.95,7.01,4.12,1.47,10.47,3.4,20.98,3.68,31.51,.56,21.15,.71,42.35-.04,63.49-.88,24.87-2.78,49.71-4.5,74.54-.42,6.14-1.82,12.21-2.85,18.81,15.2-.1,29.82,.85,42.54,9.42-.07,.46-.14,.92-.21,1.39-1.2-.12-2.47-.03-3.6-.39-12.26-3.9-24.87-3.9-37.5-3.27-1.63,.08-4,1.4-4.63,2.78-2.56,5.64-4.57,11.53-6.98,17.87,15.08,3.66,27.95,10.61,35.51,24.82,1.14,2.15,1.55,4.69,2.3,7.05-.43,.19-.87,.38-1.3,.57-1.78-2.27-3.53-4.56-5.34-6.8-8.12-10.04-19.08-15.2-31.26-18.34-2.76-.71-4.36,.2-5.68,2.59-1.79,3.27-4.15,6.27-5.68,9.65-.96,2.13-1.54,4.87-1.13,7.13,3.36,18.44,2.15,36.91,.82,55.41-1.45,20.15-11.53,35.81-25.42,49.55-.54,.53-1.15,1-1.72,1.49l.57,1.09c6.99-3.63,14.15-6.96,20.93-10.96,6.96-4.1,13.91-8.4,20.21-13.44,6.29-5.03,12.12-10.77,17.52-16.76,5.33-5.92,9.87-12.55,15.24-18.47-7.55,19.65-20.04,35.54-36.93,47.89-16.61,12.14-34.8,21.23-54.76,27.11,19.56,2.16,39.31,.63,58.71,3.66l.07,1.43c-2.96,.38-5.91,.97-8.88,1.1-16.02,.7-32.04,1.75-48.07,1.85-74.01,.47-148.02,.77-222.03,.93-69.19,.15-138.38,.21-207.57-.04-27.72-.1-55.43-1.08-83.14-1.78-6.28-.16-12.55-.84-18.82-1.28v-2Zm293.46-5.14c15.04,0,29.82,0,44.59,0,13.4,0,26.81,.11,40.2-.06,8.56-.11,12.76-5.73,10.85-13.93-.25-1.07-.38-2.18-.57-3.27,.41-.23,.81-.46,1.22-.69,1.62,1.93,4.23,3.67,4.63,5.83,.75,4,.22,8.24,.22,12.1,5.33,0,11.37,.12,17.4-.02,12.29-.28,18.36-8.7,14.95-20.53-.48-1.66-.86-3.36-1.45-5.68,9.21,5.25,10.78,15.51,4.07,27.67,6.41-.87,13.27,.16,17.25-2.75,8.88-6.49,9.72-16.43,5.04-26.93l2.46-.27c2.13,4.93,4.26,9.85,6.15,14.23,.49-6.46-1.74-12.81-7.06-17.37-4.54-3.89-9.71-7.32-15.12-9.86-6.88-3.23-14.28-5.37-21.45-7.96-20.64-7.47-38.52-18.91-52.37-36.21-.73-.91-1.75-1.59-3.17-2.86-5,5.89-9.74,11.49-14.48,17.09l-1.38-.87c2.52-4.49,4.58-9.35,7.7-13.37,3.44-4.43,6.14-8.4,2.35-13.81-.06-.08,.3-.45,1.15-1.65,1.15,2.05,2.2,3.93,3.35,5.98,5.26-4.65,9.4-8.31,13.43-11.87-5.14-6.23-9.94-12.33-15.14-18.09-.98-1.09-3.88-1.58-5.28-.96-7.8,3.44-15.43,7.27-23.08,11.04-1.58,.78-3.01,1.86-5.68,3.54,.84-2.19,.98-3.12,1.48-3.76,7.04-9.02,16.98-13.81,27.65-18.12-6.57-12.96-11.26-25.99-12.08-40.14,1.5,1.39,2.06,3.09,2.81,4.71,4.57,9.88,9.18,19.74,13.8,29.59,1.4,3,3.58,3.68,6.89,3.03,6.41-1.25,12.89-2.26,19.39-2.86,12.51-1.16,24.9,.13,37.07,3.1,1.66,.41,2.97,2.24,4.44,3.41-1.82,.65-3.67,1.91-5.47,1.84-6.99-.3-13.97-1.55-20.95-1.46-11.25,.15-22.49,1.08-33.74,1.69-.2,.66-.4,1.33-.6,1.99,4.34,4.57,8.72,9.11,12.99,13.74,2.2,2.38,4.19,2.25,6.95,.67,10.9-6.26,22.47-10.8,35.12-11.96,2.25-.21,4.56,.16,6.84,.26,.08,.6,.17,1.21,.25,1.81-13.56,4.56-27.3,8.74-40.25,16.99,1.16,.7,1.71,1,2.23,1.35,1.17,.77,2.29,1.61,3.49,2.34,27.55,16.72,57.54,22.49,89.29,19.02,38.35-4.19,68.68-21.9,89.46-54.92,.59-.94,.91-2.06,1.5-3.41h-33.96c2.23-2.21,4.73-4.08,7.44-4.47,8.58-1.25,17.24-1.9,25.86-2.91,2.02-.24,5.1-.39,5.77-1.63,2.53-4.65,4.26-9.73,6.59-15.37-14.98,3.15-27.83,8.69-40.58,14.57-1.91,.88-4.42,.48-6.65,.67,1.32-1.85,2.62-3.71,3.98-5.52,.26-.35,.79-.49,1.19-.73,12.5-7.6,25.97-12.82,40.22-15.95,3.19-.7,5.05-2,5.59-5.22,1.33-7.97,3.22-15.89,3.94-23.92,.9-10.06,.68-20.22,1.24-30.32,1.02-18.18,2.78-36.34,3.27-54.53,.58-21.49,.2-43.01,.1-64.51-.02-4.27-.64-8.54-1.02-13.26-43.69,21.06-76.53,53.7-105.91,90.63,2.47-11.4,9.58-20.17,15.74-29.62-.97-.47-1.49-.81-2.06-.99-26.91-8.36-54.33-10.44-82.21-6.56-4.97,.69-4.8,1.38-2.89,6.03,3.96,9.61,7.45,19.41,10.94,29.2,.54,1.51,.08,3.38,.08,5.09l-1.3,.3c-1.08-2.13-2.26-4.22-3.23-6.4-21.04-47.24-55.25-79.98-105.08-95.62-3.53-1.11-5.3-.77-5.35,3.35-.22,17.58-.68,35.15-.76,52.72-.12,28.11,3.55,55.9,7.35,83.68,.27,1.98,.04,4.03,.04,6.05l-1.58,.24c-.75-1.58-1.77-3.09-2.19-4.76-2.84-11.32-6-22.58-8.11-34.04-.95-5.15-3.21-7.09-7.89-7.99-18.72-3.59-37.44-5.57-56.62-4.29-31.85,2.13-61.49,11.01-89.24,26.55-1.34,.75-2.61,1.64-3.91,2.47,15.94-1.87,31.44-2.1,46.76,1.84,21.3,5.48,39.17,15.97,50.33,35.74,1.67,2.96,2.65,6.3,4.23,10.15-1.62-.34-2.04-.3-2.18-.48-.68-.84-1.32-1.71-1.93-2.61-10.44-15.4-24.74-25.78-42.21-31.72-25.56-8.69-50.92-6.93-75.96,2.37-1.56,.58-3.17,1.5-4.32,2.68-9.5,9.83-19.59,19.21-28.16,29.81-9.81,12.14-16.16,26.41-20.6,41.77,1.51,.25,2.82,.47,4.1,.69-.06,1.13-.11,1.99-.19,3.49,4.34-4.84,8.15-9.11,11.99-13.35,3.92-4.33,7.88-8.63,11.82-12.94,.36,.33,.73,.65,1.09,.98-.2,.57-.31,1.18-.61,1.69-.72,1.2-1.5,2.37-2.33,3.49-8.56,11.6-15.72,24.02-20.77,37.51-7.89,21.07-10.68,42.32-.01,63.41,.87,1.72,3.08,3.57,4.91,3.86,17.25,2.74,33.68,7.82,48.97,16.32,18.95,10.54,34.06,24.58,41.25,45.74,1.04,3.07,1.12,7.48,3.23,8.89,2.35,1.56,6.51,.42,9.89,.42,13.25,0,26.49,.06,39.74-.05,6.91-.05,10.25-3.73,10.06-10.6-.05-1.61,0-3.23,0-5.93,6.43,5.15,5.97,10.87,3.74,17.14,6.77,.28,12.65,.05,17.88-3.28,7.66-4.88,6.21-12.52,5.63-20.22,2.35,2.55,3.94,5.1,4.99,7.86,2.12,5.54,.21,10.55-2.85,15.69,3.82-.42,8.06-.41,10.29-2.51,4.13-3.89,7.19-8.86,7.21-15.18,.05-13.78-3.38-19.35-15.99-24.88-1.28-.56-2.59-1.07-3.93-1.51-19.32-6.29-38.75-7.2-58.36-1.26-1.95,.59-4.11,.51-6.17,.74l-.41-1.48c1.45-1.57,2.8-3.24,4.37-4.69,10.36-9.57,19.57-20.03,26.59-32.37,21.37-37.61,6.43-79.85-26.56-96.5-1.41-.71-2.66-1.75-3.99-2.64,1.29-.81,2.2-.9,3.02-.65,29.87,8.87,47.93,38.52,45.63,68.33-1.52,19.72-10.14,36.39-21.75,51.83-1.06,1.41-2.11,2.82-3.87,5.17,17-1.25,32.39,.93,46.87,6.13,.6-8.96,.55-17.21,1.87-25.24,1.36-8.21,4.8-15.8,11.27-21.55,.26,.74,.2,1.34-.04,1.85-6.34,13.53-7.71,27.7-6.12,42.43,.5,4.64,2.04,7.61,5.95,10.23,16.1,10.75,18.99,27.85,7.49,43.13Zm263.55-108.05c-5.53,4.09-10.58,8.29-16.08,11.76-5.64,3.56-11.54,6.85-17.65,9.52-22.4,9.79-45.8,13.53-70.23,11.31-22.7-2.07-44.08-8.03-63.42-20.35-10.94-6.97-10.81-7-21.19,1.02-2.78,2.15-3.16,3.59-.49,6.16,14.03,13.5,30.31,23.26,48.49,30.08,10.92,4.09,22.11,7.77,32.43,13.07,19.71,10.12,24.56,27.12,13.9,45.87,1.01,.1,1.88,.27,2.75,.25,9.02-.25,18.05-.62,27.07-.77,22.66-.37,38.53-10.62,46.9-31.94,.51-1.29,1.27-2.48,1.91-3.71l1.53,.53c-.81,4.53-1.62,9.07-2.5,14.01,25.49-14.63,32.9-54.76,16.57-86.81Zm-381.83,107.66c-1.13-2.84-1.78-4.74-2.63-6.54-6.64-14.18-16.56-25.58-29.53-34.24-24.82-16.57-52.33-23.65-81.99-22.11-12.79,.66-24.91,3.93-35.04,12.48-12.58,10.62-14.27,28.32-3.44,39.26,6.14,6.2,14.04,9.57,22.57,10.21,12.53,.94,25.13,1.22,37.7,1.29,28.51,.17,57.02,.05,85.54,.03,1.96,0,3.93-.21,6.82-.37Zm392.8-98.07c-.51-7.02-.94-12.97-1.37-18.92-.44-.32-.87-.64-1.31-.96-1.1,1.46-2.42,2.81-3.21,4.42-.63,1.28-1.27,3.2-.74,4.28,1.76,3.58,4.03,6.9,6.63,11.19Z"/><path d="M407.93,211.53c-.3-1.25-.59-2.49-.89-3.74,0-.3-.02-.61-.03-.91,1.68-2.99,.66-4.79-1.81-5.64,.3-6.39,.75-12.8,.8-19.22,.01-1.52-1.3-3.07-2.05-4.57-.41-.82-1.51-2.07-1.32-2.29,4.49-5.24-2.13-10.11-.44-15.12,1.62-4.8,2.75-9.94,7.63-13.26l-6.11-9.89c.39-.25,.77-.51,1.16-.76,9.99,8.43,17.73,18.71,23.67,30.39,5.96,11.71,8.55,24.13,6.31,37.81,9.67-3.92,18.27-7.94,28.52-8.65-.65,1.03-.79,1.6-1.1,1.71-10.61,3.62-19.94,9.51-28.46,16.6-2.79,2.32-4.53,5.89-6.66,8.76,.07,.14-.4-.79-1.41-2.82-.84,2.96-1.37,4.82-2.01,7.09l-2.83-.75v3.35c-2.01,1.19-3.71,2.36-5.55,3.22-1.13,.53-2.94,1.23-3.63,.73-.9-.66-1.03-2.41-1.41-3.71-.69-2.36-1.32-4.73-2.49-6.99-.57-1.9-1.15-3.81-1.72-5.71h-.02c1.25-.61,2.49-1.23,3.74-1.85-.62-1.26-1.25-2.53-1.87-3.79Z"/><path d="M674.76,154.65c-.3,.68-.43,1.51-.92,2-3.27,3.32-4.06,6.91-2.17,11.34,.62,1.44-.31,3.48-.24,5.23,.11,2.62,.69,5.23,.67,7.83-.04,4.8-.15,9.63-.64,14.4-.63,6.1,.99,12.58-3,18.21-.46,.65,.39,2.26,.71,3.41,.21,.73,.98,1.54,.81,2.09-3.05,9.6,2.36,18.92,.88,28.44-.16,1.02-.55,2-1.55,3.29-2.59-22.17-17.52-36.47-32.33-50.83,.32-.33,.64-.66,.96-.98,2.75,1.18,5.49,2.36,9.04,3.89-.33-2.25-.56-3.78-.83-5.58,1.07-.35,2.19-.72,2.84-.94-.11-1.88-.46-3.56-.25-5.17,1.15-9.03,5.57-16.89,10.55-24.05,3.68-5.29,9.52-9.06,14.4-13.51,.35,.31,.7,.62,1.05,.93Z"/><path d="M586.37,294.84c-.91,5.02-1.83,10.05-2.72,14.98,.9,.3,1.25,.55,1.44,.46,10.07-4.81,20-9.92,30.21-14.4,11.37-4.98,21.84-11.23,31.11-19.49,.96-.85,2.12-1.47,3.19-2.19l.99,.85c-1.16,1.87-2.2,3.83-3.51,5.59-8.98,11.97-21.15,19.6-34.78,25.06-10.86,4.35-21.77,8.47-29.85,17.55-2.05,2.31-3.92,2.23-4.98-1.18-2.54-8.15,1.29-21.86,8.89-27.23Z"/><path d="M563.44,360.77c-12.54,14.44-24.64,16.79-30.93,5.51,8.06,2.12,15.7,2.45,21.24-4.03,2.57-3.01,3.77-7.18,5.82-11.29-6.33-2.02-12.77-2.12-14.33-9.12,10.46-.99,20.67-1.95,30.88-2.92,.13,5.22-1.28,6.8-9.86,10.98,.17,5.25,4.96,11.91,10.58,12.43,5.42,.51,11.02-.93,16.98-1.55-1.09,3.79-4.34,6.29-8.25,7.64-9.05,3.13-15.97-.91-22.11-7.65Z"/><path d="M457.02,292.99c10.84,4.32,21.47,9.3,32.58,12.76,11.2,3.48,22.86,5.45,35.34,8.31-1.75-4.98-3.51-9.98-5.26-14.97,.41-.27,.82-.53,1.22-.8,1.58,1.52,3.27,2.95,4.73,4.59,5.48,6.14,7.21,13.68,7.57,21.58,.18,4.1-1.69,5.35-4.54,3.11-8.9-6.99-19.28-9.74-30.15-11.55-13.32-2.21-25.26-7.65-35.62-16.37-2.28-1.92-4.29-4.17-6.42-6.27l.54-.41Z"/><path d="M407.93,211.53c.62,1.26,1.25,2.53,1.87,3.79-1.25,.62-2.49,1.24-3.74,1.86h.02c.62-1.89,1.23-3.77,1.85-5.65Z"/><path d="M407.02,206.88c0,.3,.02,.61,.03,.91-.01-.3-.02-.61-.03-.91Z"/><path d="M565.07,430.74c17.14,.86,30.59-4.18,36.05-23.06,2.52,6.9-1.09,16.47-6.98,21.31-7.13,5.86-20.92,7.01-29.07,1.75Z"/></svg>